<svg width="199" height="31" viewBox="0 0 199 31" fill="none" xmlns="http://www.w3.org/2000/svg">
<path d="M56.2956 24V7.2H59.9436L68.7516 19.2L67.9596 19.08C67.8796 18.552 67.8156 18.048 67.7676 17.568C67.7196 17.088 67.6716 16.616 67.6236 16.152C67.5916 15.688 67.5596 15.216 67.5276 14.736C67.5116 14.256 67.4956 13.736 67.4796 13.176C67.4796 12.616 67.4796 12.008 67.4796 11.352V7.2H71.4396V24H67.7436L58.5516 11.616L59.7756 11.784C59.8556 12.552 59.9196 13.208 59.9676 13.752C60.0316 14.28 60.0796 14.752 60.1116 15.168C60.1596 15.584 60.1916 15.96 60.2076 16.296C60.2236 16.632 60.2316 16.968 60.2316 17.304C60.2476 17.624 60.2556 17.984 60.2556 18.384V24H56.2956ZM81.079 29.52C80.039 29.52 78.999 29.368 77.959 29.064C76.935 28.76 76.103 28.368 75.463 27.888L76.807 25.2C77.143 25.424 77.511 25.616 77.911 25.776C78.327 25.952 78.759 26.088 79.207 26.184C79.655 26.28 80.111 26.328 80.575 26.328C81.391 26.328 82.055 26.208 82.567 25.968C83.079 25.728 83.463 25.36 83.719 24.864C83.975 24.384 84.103 23.776 84.103 23.04V20.904L84.847 21.024C84.735 21.552 84.455 22.032 84.007 22.464C83.575 22.896 83.039 23.248 82.399 23.52C81.759 23.776 81.079 23.904 80.359 23.904C79.207 23.904 78.175 23.64 77.263 23.112C76.367 22.568 75.655 21.824 75.127 20.88C74.615 19.92 74.359 18.816 74.359 17.568C74.359 16.288 74.615 15.16 75.127 14.184C75.639 13.192 76.343 12.416 77.239 11.856C78.135 11.28 79.143 10.992 80.263 10.992C80.743 10.992 81.199 11.048 81.631 11.16C82.079 11.272 82.487 11.424 82.855 11.616C83.239 11.792 83.575 12.008 83.863 12.264C84.167 12.504 84.407 12.768 84.583 13.056C84.775 13.344 84.903 13.64 84.967 13.944L84.175 14.136L84.319 11.256H87.967V22.968C87.967 24.008 87.807 24.928 87.487 25.728C87.183 26.544 86.727 27.232 86.119 27.792C85.527 28.368 84.807 28.8 83.959 29.088C83.111 29.376 82.151 29.52 81.079 29.52ZM81.175 20.928C81.799 20.928 82.335 20.792 82.783 20.52C83.247 20.232 83.599 19.84 83.839 19.344C84.095 18.848 84.223 18.264 84.223 17.592C84.223 16.92 84.095 16.336 83.839 15.84C83.599 15.328 83.247 14.936 82.783 14.664C82.335 14.376 81.799 14.232 81.175 14.232C80.567 14.232 80.039 14.376 79.591 14.664C79.143 14.936 78.791 15.328 78.535 15.84C78.295 16.336 78.175 16.92 78.175 17.592C78.175 18.264 78.295 18.848 78.535 19.344C78.791 19.84 79.143 20.232 79.591 20.52C80.039 20.792 80.567 20.928 81.175 20.928ZM97.3017 24.24C95.9737 24.24 94.7897 23.952 93.7497 23.376C92.7257 22.8 91.9097 22.016 91.3017 21.024C90.7097 20.032 90.4137 18.896 90.4137 17.616C90.4137 16.336 90.7097 15.2 91.3017 14.208C91.9097 13.216 92.7257 12.432 93.7497 11.856C94.7897 11.28 95.9737 10.992 97.3017 10.992C98.6297 10.992 99.8057 11.28 100.83 11.856C101.87 12.432 102.686 13.216 103.278 14.208C103.87 15.2 104.166 16.336 104.166 17.616C104.166 18.896 103.87 20.032 103.278 21.024C102.686 22.016 101.87 22.8 100.83 23.376C99.8057 23.952 98.6297 24.24 97.3017 24.24ZM97.3017 20.928C97.8777 20.928 98.3897 20.784 98.8377 20.496C99.2857 20.208 99.6377 19.816 99.8937 19.32C100.15 18.824 100.27 18.256 100.254 17.616C100.27 16.976 100.15 16.408 99.8937 15.912C99.6377 15.4 99.2857 15 98.8377 14.712C98.3897 14.424 97.8777 14.28 97.3017 14.28C96.7257 14.28 96.2057 14.424 95.7417 14.712C95.2937 15 94.9417 15.4 94.6857 15.912C94.4297 16.408 94.3097 16.976 94.3257 17.616C94.3097 18.256 94.4297 18.824 94.6857 19.32C94.9417 19.816 95.2937 20.208 95.7417 20.496C96.2057 20.784 96.7257 20.928 97.3017 20.928ZM106.677 29.28V11.256H110.325L110.469 14.112L109.749 13.896C109.861 13.368 110.133 12.888 110.565 12.456C110.997 12.024 111.541 11.68 112.197 11.424C112.869 11.152 113.573 11.016 114.309 11.016C115.397 11.016 116.365 11.304 117.213 11.88C118.061 12.44 118.725 13.216 119.205 14.208C119.701 15.184 119.949 16.32 119.949 17.616C119.949 18.896 119.701 20.032 119.205 21.024C118.725 22.016 118.053 22.8 117.189 23.376C116.341 23.936 115.365 24.216 114.261 24.216C113.541 24.216 112.853 24.08 112.197 23.808C111.541 23.536 110.989 23.168 110.541 22.704C110.093 22.24 109.797 21.736 109.653 21.192L110.541 20.856V29.28H106.677ZM113.325 20.976C113.901 20.976 114.405 20.84 114.837 20.568C115.269 20.28 115.605 19.888 115.845 19.392C116.085 18.896 116.205 18.304 116.205 17.616C116.205 16.944 116.085 16.36 115.845 15.864C115.605 15.352 115.269 14.96 114.837 14.688C114.421 14.4 113.917 14.256 113.325 14.256C112.733 14.256 112.221 14.392 111.789 14.664C111.357 14.936 111.021 15.328 110.781 15.84C110.541 16.352 110.421 16.944 110.421 17.616C110.421 18.304 110.541 18.896 110.781 19.392C111.021 19.888 111.357 20.28 111.789 20.568C112.221 20.84 112.733 20.976 113.325 20.976ZM128.569 24.24C127.161 24.24 125.937 23.96 124.897 23.4C123.857 22.824 123.049 22.048 122.473 21.072C121.897 20.08 121.609 18.952 121.609 17.688C121.609 16.712 121.769 15.816 122.089 15C122.409 14.184 122.857 13.48 123.433 12.888C124.009 12.28 124.689 11.816 125.473 11.496C126.273 11.16 127.145 10.992 128.089 10.992C128.985 10.992 129.801 11.152 130.537 11.472C131.289 11.792 131.937 12.24 132.481 12.816C133.025 13.392 133.441 14.072 133.729 14.856C134.017 15.64 134.145 16.496 134.113 17.424L134.089 18.456H123.937L123.385 16.296H130.969L130.561 16.752V16.272C130.529 15.872 130.401 15.52 130.177 15.216C129.969 14.896 129.689 14.648 129.337 14.472C128.985 14.296 128.585 14.208 128.137 14.208C127.513 14.208 126.977 14.336 126.529 14.592C126.097 14.832 125.769 15.192 125.545 15.672C125.321 16.136 125.209 16.712 125.209 17.4C125.209 18.104 125.353 18.72 125.641 19.248C125.945 19.76 126.377 20.16 126.937 20.448C127.513 20.736 128.193 20.88 128.977 20.88C129.521 20.88 130.001 20.8 130.417 20.64C130.849 20.48 131.313 20.208 131.809 19.824L133.609 22.368C133.113 22.8 132.585 23.152 132.025 23.424C131.465 23.696 130.889 23.896 130.297 24.024C129.721 24.168 129.145 24.24 128.569 24.24ZM136.559 24V11.256H140.207L140.327 13.848L139.559 14.136C139.735 13.56 140.047 13.04 140.495 12.576C140.959 12.096 141.511 11.712 142.151 11.424C142.791 11.136 143.463 10.992 144.167 10.992C145.127 10.992 145.935 11.192 146.591 11.592C147.247 11.976 147.743 12.56 148.079 13.344C148.415 14.112 148.583 15.056 148.583 16.176V24H144.719V16.488C144.719 15.976 144.647 15.552 144.503 15.216C144.359 14.88 144.135 14.632 143.831 14.472C143.543 14.296 143.183 14.216 142.751 14.232C142.415 14.232 142.103 14.288 141.815 14.4C141.527 14.496 141.279 14.648 141.071 14.856C140.863 15.048 140.695 15.272 140.567 15.528C140.455 15.784 140.399 16.064 140.399 16.368V24H138.503C138.055 24 137.671 24 137.351 24C137.031 24 136.767 24 136.559 24ZM152.01 24V11.256H155.85V24H152.01ZM153.93 8.736C153.21 8.736 152.642 8.568 152.226 8.232C151.826 7.88 151.626 7.384 151.626 6.744C151.626 6.168 151.834 5.696 152.25 5.328C152.666 4.96 153.226 4.776 153.93 4.776C154.65 4.776 155.21 4.952 155.61 5.304C156.01 5.64 156.21 6.12 156.21 6.744C156.21 7.336 156.002 7.816 155.586 8.184C155.186 8.552 154.634 8.736 153.93 8.736ZM162.89 24L157.85 7.2H162.002L164.522 16.032C164.634 16.432 164.73 16.84 164.81 17.256C164.906 17.656 164.978 18.04 165.026 18.408C165.09 18.776 165.138 19.12 165.17 19.44C165.202 19.744 165.234 20 165.266 20.208H164.738C164.834 19.616 164.914 19.088 164.978 18.624C165.058 18.16 165.146 17.728 165.242 17.328C165.338 16.912 165.458 16.48 165.602 16.032L168.098 9.384H171.362L173.81 16.032C174.002 16.56 174.162 17.056 174.29 17.52C174.418 17.984 174.514 18.432 174.578 18.864C174.658 19.28 174.722 19.696 174.77 20.112L174.29 20.184C174.322 19.896 174.346 19.632 174.362 19.392C174.378 19.136 174.394 18.896 174.41 18.672C174.442 18.432 174.474 18.184 174.506 17.928C174.538 17.672 174.586 17.392 174.65 17.088C174.714 16.768 174.802 16.408 174.914 16.008L177.41 7.2H181.466L176.426 24H173.306L169.322 14.328L169.778 14.376L166.106 24H162.89ZM183.51 24V11.256H187.35V24H183.51ZM185.43 8.736C184.71 8.736 184.142 8.568 183.726 8.232C183.326 7.88 183.126 7.384 183.126 6.744C183.126 6.168 183.334 5.696 183.75 5.328C184.166 4.96 184.726 4.776 185.43 4.776C186.15 4.776 186.71 4.952 187.11 5.304C187.51 5.64 187.71 6.12 187.71 6.744C187.71 7.336 187.502 7.816 187.086 8.184C186.686 8.552 186.134 8.736 185.43 8.736ZM192.014 24V8.04H195.854V24H192.014ZM189.758 14.616V11.256H198.326V14.616H189.758Z" fill="#435151"/>
<g clip-path="url(#clip0_42_143)">
<path d="M33.8439 8.18652V10.3107C33.8439 20.5357 25.1847 25.1803 14.5046 25.1803H11.4393C11.781 21.9812 13.2927 20.045 17.2379 17.7445C19.1783 16.6133 19.0139 15.9601 18.0582 16.335C11.4764 18.916 8.20805 22.4039 8.06301 27.9737L8.05818 28.3666H4.83496C4.83496 26.919 5.02191 25.6052 5.39258 24.4028C5.02191 23.0285 4.83496 21.1634 4.83496 18.8076C4.83496 12.9416 12.0501 8.18652 20.951 8.18652C24.1742 8.18652 27.3975 9.24864 33.8439 8.18652Z" fill="#435151"/>
</g>
<defs>
<clipPath id="clip0_42_143">
<rect width="38.6786" height="25.4907" fill="white" transform="translate(0 5)"/>
</clipPath>
</defs>
</svg>
